#!OML:ASF I:\Segmentation\Patient Classification 1\Patient 1\Session 1\Patient1.ASF
:FULLY-SPECIFIED
:DEGREES
8
root 17.3138 18.1226 0.346952 -74.2414 -88.2537 87.5383
lowerback -10.8284 0.496413 -0.220384
upperback 0.915615 0.645377 0.528829
thorax 7.04277 0.292795 0.788871
lowerneck -14.6701 -1.28404 -4.95608
upperneck 20.5088 -1.05587 1.25304
head 8.87827 -0.822825 1.1144
rclavicle -4.96962e-016 -1.11319e-014
rhumerus -35.1832 -9.71498 -83.904
rradius 36.1645
rwrist 15.0464
rhand -21.8654 33.0043
rfingers 7.12502
rthumb 4.53876 3.07289
lclavicle -4.96962e-016 -1.11319e-014
lhumerus -28.2555 7.45836 81.5251
lradius 33.2616
lwrist 11.9673
lhand -11.5074 32.9012
lfingers 7.12502
lthumb 14.5316 62.3723
rfemur -27.095 8.40666 14.462
rtibia 39.7956
rfoot -12.4155 12.3529
rtoes 37.257
lfemur -28.3602 1.11512 -23.3815
ltibia 39.3521
lfoot -23.1884 0.925082
ltoes -5.05429
9
root 17.3051 18.1253 0.367263 -69.1968 -88.3311 82.5087
lowerback -10.9102 0.470737 -0.223879
upperback 0.839658 0.614577 0.477627
thorax 7.00941 0.278593 0.73201
lowerneck -14.7308 -1.25673 -4.94522
upperneck 20.6305 -1.04513 1.36635
head 8.93081 -0.807066 1.15263
rclavicle 0 5.1684e-015
rhumerus -35.1111 -9.31508 -84.1236
rradius 35.8641
rwrist 15.3542
rhand -21.9366 33.1776
rfingers 7.12502
rthumb 4.47001 3.24477
lclavicle 0 5.1684e-015
lhumerus -28.6088 7.30845 82.1273
lradius 33.323
lwrist 11.9236
lhand -11.4683 32.7751
lfingers 7.12502
lthumb 14.5693 62.2434
rfemur -26.9313 8.43105 14.521
rtibia 39.6708
rfoot -12.6232 12.4035
rtoes 37.495
lfemur -28.3053 0.961436 -23.3168
ltibia 39.2737
lfoot -23.2684 0.864334
ltoes -4.54969
